<?xml version="1.0" encoding="UTF-8"?>
<svg id="a" xmlns="http://www.w3.org/2000/svg" viewBox="0 0 654.84 575.62">
    <defs>
        <style>
            .b,.c{fill:none;}.d,.e{fill:#fff;}.f{fill:#333;}.g{fill:#c8edde;}.h{fill:#c4c4c4;}.i{fill:#acc0f9;stroke:#2902ce;stroke-width:4px;}.i,.c{stroke-miterlimit:10;}.c{stroke:#fff;stroke-width:5px;}.e{opacity:.67;}
        </style>
    </defs>
    <rect class="g" x="168.44" y="168.29" width="318.3" height="239.04"/>
    <rect class="h" x="143.82" width="367.2" height="143.82"/>
    <rect class="h" x="143.82" y="431.8" width="367.2" height="143.82"/>
    <rect class="h" x="-72.63" y="216.45" width="289.08" height="143.82"
          transform="translate(-216.45 360.27) rotate(-90)"/>
    <rect class="h" x="438.39" y="216.45" width="289.08" height="143.82"
          transform="translate(294.57 871.29) rotate(-90)"/>
    <polyline class="c" points="168.44 365.15 206.68 365.15 206.68 211.12 168.44 211.12"/>
    <polyline class="c" points="168.44 326.05 181.06 326.05 181.06 250.66 168.44 250.66"/>
    <path class="b" d="M206.68,314.29c14.16,0,25.64-11.48,25.64-25.64s-11.48-25.64-25.64-25.64"/>
    <polyline class="c" points="487.22 365.15 448.98 365.15 448.98 211.12 487.22 211.12"/>
    <polyline class="c" points="487.22 326.05 474.6 326.05 474.6 250.66 487.22 250.66"/>
    <path class="b" d="M448.98,314.29c-14.16,0-25.64-11.48-25.64-25.64,0-14.16,11.48-25.64,25.64-25.64"/>
    <line class="c" x1="327.64" y1="168.29" x2="327.64" y2="407.33"/>
    <circle class="c" cx="327.42" cy="287.81" r="35.29"/>
    <polygon class="f"
             points="335.17 503.71 348.46 474.05 305.73 474.05 319.72 503.71 298.26 503.71 298.26 557.36 355.93 557.36 355.93 503.71 335.17 503.71"/>
    <polygon class="e" points="654.84 575.62 0 575.62 0 211.12 327.64 474.05 654.84 211.12 654.84 575.62"/>
    <g>
        <rect class="d" x="175.61" y="33.17" width="88.17" height="74.66"/>
        <rect class="i" x="181.8" y="39.55" width="75.79" height="61.53"/>
        <rect class="d" x="281.89" y="33.17" width="88.17" height="74.66"/>
        <rect class="i" x="288.08" y="39.55" width="75.79" height="61.53"/>
        <rect class="d" x="391.07" y="33.17" width="88.17" height="74.66"/>
        <rect class="i" x="397.26" y="39.55" width="75.79" height="61.53"/>
    </g>
</svg>