<svg width="157" height="40" viewBox="0 0 157 40" fill="none" xmlns="http://www.w3.org/2000/svg">
    <path d="M15.0548 0.000332317C18.2021 -0.0176128 21.7429 0.691219 25.6771 2.12683L24.0247 8.58707C20.3703 7.25913 17.3978 6.59516 15.1073 6.59516C13.2538 6.59516 11.7938 6.97201 10.7272 7.72571C9.6606 8.4794 9.1273 9.50227 9.1273 10.7943C9.1273 12.194 9.61688 13.3066 10.5961 14.1321C11.5927 14.9576 13.4024 15.7203 16.0252 16.4201C19.8895 17.443 22.6346 18.8607 24.2608 20.6731C25.8869 22.4676 26.7 24.944 26.7 28.1024C26.7 31.9247 25.441 34.8587 22.9232 36.9045C20.4228 38.9323 16.847 39.9462 12.196 39.9462C8.40166 39.9462 4.33634 39.0669 0 37.3082L1.94086 31.0364C4.33634 31.9157 6.29469 32.5348 7.8159 32.8937C9.33712 33.2347 10.7797 33.4052 12.1435 33.4052C14.1193 33.4052 15.6406 32.9745 16.7072 32.1131C17.7912 31.2338 18.3333 30.0225 18.3333 28.4792C18.3333 27.4923 18.106 26.6668 17.6514 26.0028C17.1967 25.3388 16.4274 24.7467 15.3433 24.2262C14.2592 23.6879 12.6943 23.1585 10.6485 22.6381C7.23889 21.7947 4.74724 20.4847 3.17357 18.7081C1.5999 16.9316 0.813064 14.5897 0.813064 11.6826C0.813064 7.96796 2.05452 5.09675 4.53742 3.06895C7.03781 1.0232 10.5436 0.000332317 15.0548 0.000332317Z"
          fill="black" fill-opacity="0.40"/>
    <path d="M56.7833 6.89126H46.4758V39.5693H38.2665V6.89126H27.5655V0.484851H56.7833V6.89126Z" fill="black"
          fill-opacity="0.40"/>
    <path d="M65.1238 29.529L62.0289 39.5693H53.9507L66.304 0.484851H77.1624L89.8304 39.5693H81.8834L78.6574 29.529H65.1238ZM71.6283 7.69879L66.9597 23.311H76.7952L71.9955 7.69879H71.6283Z"
          fill="black" fill-opacity="0.40"/>
    <path d="M102.603 39.5693H94.499V0.484851H107.56C112.316 0.484851 115.962 1.52567 118.497 3.6073C121.05 5.67099 122.327 8.69474 122.327 12.6786C122.327 15.137 121.715 17.2635 120.491 19.058C119.267 20.8526 117.527 22.2343 115.271 23.2034L123.612 39.5693H114.852L107.875 24.6838H102.603V39.5693ZM107.22 18.6274C109.58 18.6274 111.32 18.1428 112.439 17.1738C113.575 16.1868 114.144 14.6884 114.144 12.6786C114.144 10.6149 113.575 9.10748 112.439 8.15639C111.32 7.18735 109.58 6.70283 107.22 6.70283H102.603V18.6274H107.22Z"
          fill="black" fill-opacity="0.40"/>
    <path d="M145.276 0.000332317C147.287 0.000332317 149.289 0.269509 151.282 0.807863C153.293 1.32827 155.094 2.06402 156.685 3.01511L154.246 8.85625C152.742 8.1205 151.352 7.59112 150.076 7.26811C148.817 6.92715 147.54 6.75667 146.247 6.75667C142.627 6.75667 139.873 7.87824 137.985 10.1214C136.114 12.3645 135.178 15.6216 135.178 19.8925C135.178 24.2352 136.114 27.5281 137.985 29.7713C139.873 31.9965 142.627 33.1091 146.247 33.1091C149.044 33.1091 151.964 32.4541 155.007 31.1441L157 37.3082C153.066 39.1027 149.123 40 145.171 40C139.226 40 134.671 38.2862 131.507 34.8587C128.342 31.4133 126.759 26.4784 126.759 20.054C126.759 15.9087 127.494 12.3286 128.962 9.31385C130.431 6.29907 132.547 3.99312 135.31 2.39601C138.09 0.79889 141.412 0.000332317 145.276 0.000332317Z"
          fill="black" fill-opacity="0.40"/>
</svg>

